<?xml version="1.0" encoding="UTF-8"?>
<!DOCTYPE svg PUBLIC "-//W3C//DTD SVG 1.1//EN" "http://www.w3.org/Graphics/SVG/1.1/DTD/svg11.dtd">
<!-- Creator: CorelDRAW 2019 (64-Bit) -->
<svg xmlns="http://www.w3.org/2000/svg" xml:space="preserve" width="290px" height="239px" version="1.1" shape-rendering="geometricPrecision" text-rendering="geometricPrecision" image-rendering="optimizeQuality" fill-rule="evenodd" clip-rule="evenodd"
viewBox="0 0 290.82 239.58"
 xmlns:xlink="http://www.w3.org/1999/xlink">
 <g id="Layer_x0020_1">
  <metadata id="CorelCorpID_0Corel-Layer"/>
  <path fill="white" fill-rule="nonzero" d="M75.12 41.31l11.67 78.48 5.06 34.21 12.42 -34.21 28.39 -78.48 28 0 27.64 78.48 10.51 29.85 4.91 -29.85 12.87 -78.48 28.65 0 -14.72 78.48 -14.78 78.43 -27.64 0 -27.5 -78.43 -15.62 -44.67 -16.77 44.67 -29.5 78.43 -27.35 0 -12.87 -78.43 -12.92 -78.48 29.55 0zm211.08 -8.06c-8.51,-19.58 -28.09,-33.25 -50.78,-33.25l-180.03 0c-22.59,0 -42.02,13.52 -50.58,32.95 -3.11,6.81 -4.81,14.43 -4.81,22.38l0 128.81c0,30.55 24.84,55.44 55.39,55.44l180.03 0c30.55,0 55.4,-24.89 55.4,-55.44l0 -128.81c0,-7.86 -1.61,-15.32 -4.62,-22.08z"/>
 </g>
</svg>
